<svg width="302" height="271" viewBox="0 0 302 271" fill="none" xmlns="http://www.w3.org/2000/svg">
<ellipse cx="140" cy="135.5" rx="140" ry="135.5" fill="#C44261" fill-opacity="0.67"/>
<path d="M71.5537 120.717V113.393H77.584L78.4629 111.659L66.8418 92.1523H64.5225V84.8281H82.1738V92.1523H79.2441L83.9316 100.648L88.1553 92.1523H85.2256V84.8281H97.6035V92.1523H95.2842L84.7129 113.393H88.2529V120.717H71.5537ZM114.229 111.439C111.17 111.439 108.525 110.894 106.295 109.804C104.081 108.713 102.372 107.159 101.168 105.141C99.9798 103.122 99.3857 100.722 99.3857 97.9385C99.3857 95.139 99.9798 92.7301 101.168 90.7119C102.372 88.6937 104.081 87.1393 106.295 86.0488C108.525 84.9421 111.17 84.3887 114.229 84.3887C117.289 84.3887 119.926 84.9421 122.14 86.0488C124.369 87.1393 126.078 88.6937 127.267 90.7119C128.471 92.7301 129.073 95.139 129.073 97.9385C129.073 100.722 128.471 103.122 127.267 105.141C126.078 107.159 124.369 108.713 122.14 109.804C119.926 110.894 117.289 111.439 114.229 111.439ZM114.229 104.335C116.427 104.335 117.525 102.195 117.525 97.9141C117.525 93.6335 116.427 91.4932 114.229 91.4932C112.032 91.4932 110.934 93.6335 110.934 97.9141C110.934 102.195 112.032 104.335 114.229 104.335ZM131.954 111V104.652L143.673 90.5654H137.813L137.325 94.5938H131.954V84.8281H158.199V91.1758L146.725 105.263H152.828L153.316 100.258H158.688V111H131.954ZM162.13 111V103.676H165.67V92.4697H162.13V85.8047L177.145 84.3643V87.5625C178.154 86.5371 179.407 85.7477 180.904 85.1943C182.402 84.641 183.997 84.3643 185.689 84.3643C189.107 84.3643 191.484 85.5524 192.818 87.9287C194.072 86.7894 195.496 85.9105 197.091 85.292C198.702 84.6735 200.313 84.3643 201.925 84.3643C205.05 84.3643 207.312 85.1862 208.712 86.8301C210.128 88.474 210.836 90.9642 210.836 94.3008V103.676H214.254V111H199.117V94.3008C199.117 93.3893 198.914 92.7301 198.507 92.3232C198.116 91.9001 197.62 91.6885 197.018 91.6885C196.529 91.6885 196.017 91.835 195.479 92.1279C194.942 92.4209 194.487 92.8441 194.112 93.3975V103.676H196.31V111H182.394V94.3008C182.394 93.3893 182.19 92.7301 181.783 92.3232C181.393 91.9001 180.896 91.6885 180.294 91.6885C179.806 91.6885 179.293 91.835 178.756 92.1279C178.219 92.4209 177.763 92.8441 177.389 93.3975V103.676H179.586V111H162.13ZM55.8311 191V183.676H59.3711V172.47H55.8311V165.805L70.8457 164.364V167.562C71.8548 166.537 73.1081 165.748 74.6055 165.194C76.1029 164.641 77.6979 164.364 79.3906 164.364C82.8086 164.364 85.1849 165.552 86.5195 167.929C87.7728 166.789 89.1969 165.91 90.792 165.292C92.4033 164.674 94.0146 164.364 95.626 164.364C98.751 164.364 101.013 165.186 102.413 166.83C103.829 168.474 104.537 170.964 104.537 174.301V183.676H107.955V191H92.8184V174.301C92.8184 173.389 92.6149 172.73 92.208 172.323C91.8174 171.9 91.321 171.688 90.7188 171.688C90.2305 171.688 89.7178 171.835 89.1807 172.128C88.6436 172.421 88.1878 172.844 87.8135 173.397V183.676H90.0107V191H76.0947V174.301C76.0947 173.389 75.8913 172.73 75.4844 172.323C75.0938 171.9 74.5973 171.688 73.9951 171.688C73.5068 171.688 72.9941 171.835 72.457 172.128C71.9199 172.421 71.4642 172.844 71.0898 173.397V183.676H73.2871V191H55.8311ZM125.265 191.439C122.205 191.439 119.56 190.894 117.33 189.804C115.117 188.713 113.408 187.159 112.203 185.141C111.015 183.122 110.421 180.722 110.421 177.938C110.421 175.139 111.015 172.73 112.203 170.712C113.408 168.694 115.117 167.139 117.33 166.049C119.56 164.942 122.205 164.389 125.265 164.389C128.325 164.389 130.961 164.942 133.175 166.049C135.405 167.139 137.114 168.694 138.302 170.712C139.506 172.73 140.108 175.139 140.108 177.938C140.108 180.722 139.506 183.122 138.302 185.141C137.114 187.159 135.405 188.713 133.175 189.804C130.961 190.894 128.325 191.439 125.265 191.439ZM125.265 184.335C127.462 184.335 128.561 182.195 128.561 177.914C128.561 173.633 127.462 171.493 125.265 171.493C123.067 171.493 121.969 173.633 121.969 177.914C121.969 182.195 123.067 184.335 125.265 184.335ZM151.241 191L143.697 172.152H141.378V164.828H159.029V172.152H156.1L160.348 184.115L165.011 172.152H162.081V164.828H174.459V172.152H172.14L164.596 191H151.241ZM176.778 191V183.676H180.562V172.47H176.778V165.805L192.281 164.364V183.676H196.065V191H176.778ZM186.422 162.729C184.29 162.729 182.581 162.216 181.295 161.19C180.025 160.165 179.391 158.806 179.391 157.113C179.391 155.421 180.025 154.086 181.295 153.109C182.564 152.117 184.282 151.62 186.446 151.62C188.66 151.62 190.377 152.1 191.598 153.061C192.835 154.021 193.453 155.372 193.453 157.113C193.453 158.839 192.818 160.206 191.549 161.215C190.296 162.224 188.587 162.729 186.422 162.729ZM213.644 191.439C208.81 191.439 205.017 190.227 202.267 187.802C199.532 185.36 198.165 181.983 198.165 177.67C198.165 174.952 198.759 172.6 199.947 170.614C201.152 168.629 202.828 167.099 204.977 166.024C207.125 164.934 209.623 164.389 212.472 164.389C215.255 164.389 217.639 164.901 219.625 165.927C221.611 166.936 223.124 168.352 224.166 170.175C225.224 171.981 225.753 174.073 225.753 176.449C225.753 177.003 225.729 177.54 225.68 178.061C225.631 178.565 225.574 179.029 225.509 179.452H209.811C210.087 181.112 210.836 182.309 212.057 183.041C213.294 183.757 214.799 184.115 216.573 184.115C218.071 184.115 219.495 183.855 220.846 183.334C222.213 182.797 223.368 182.13 224.312 181.332L224.972 181.625V188.632C224.19 189.169 223.181 189.649 221.944 190.072C220.707 190.495 219.365 190.829 217.916 191.073C216.484 191.317 215.06 191.439 213.644 191.439ZM213.106 170.395C212.016 170.395 211.194 170.818 210.641 171.664C210.087 172.51 209.778 173.69 209.713 175.204H216.5C216.435 173.69 216.126 172.51 215.572 171.664C215.035 170.818 214.213 170.395 213.106 170.395Z" fill="#FAFBF6"/>
</svg>
